<?xml version="1.0" encoding="UTF-8" standalone="no"?>
<!-- Created with Inkscape (http://www.inkscape.org/) -->

<svg
   xmlns:dc="http://purl.org/dc/elements/1.1/"
   xmlns:cc="http://creativecommons.org/ns#"
   xmlns:rdf="http://www.w3.org/1999/02/22-rdf-syntax-ns#"
   xmlns:svg="http://www.w3.org/2000/svg"
   xmlns="http://www.w3.org/2000/svg"
   xmlns:sodipodi="http://sodipodi.sourceforge.net/DTD/sodipodi-0.dtd"
   xmlns:inkscape="http://www.inkscape.org/namespaces/inkscape"
   width="744.09448819"
   height="1052.3622047"
   id="svg2"
   version="1.1"
   inkscape:version="0.48.5 r10040"
   sodipodi:docname="Rysunek.svg">
  <defs
     id="defs4" />
  <sodipodi:namedview
     id="base"
     pagecolor="#1c3d32"
     bordercolor="#666666"
     borderopacity="1.0"
     inkscape:pageopacity="0.53333333"
     inkscape:pageshadow="2"
     inkscape:zoom="1.2167969"
     inkscape:cx="456.97082"
     inkscape:cy="429.1869"
     inkscape:document-units="px"
     inkscape:current-layer="layer1"
     showgrid="false"
     inkscape:window-width="1842"
     inkscape:window-height="1057"
     inkscape:window-x="70"
     inkscape:window-y="-8"
     inkscape:window-maximized="1"
     showguides="true"
     inkscape:guide-bbox="true"
     inkscape:snap-global="false">
    <sodipodi:guide
       orientation="1,0"
       position="263.80738,493.91974"
       id="guide3011" />
    <sodipodi:guide
       orientation="1,0"
       position="248.13887,496.85885"
       id="guide3013" />
    <sodipodi:guide
       orientation="1,0"
       position="535.83307,765.94543"
       id="guide3015" />
    <sodipodi:guide
       orientation="1,0"
       position="583.4992,762.65811"
       id="guide3017" />
  </sodipodi:namedview>
  <metadata
     id="metadata7">
    <rdf:RDF>
      <cc:Work
         rdf:about="">
        <dc:format>image/svg+xml</dc:format>
        <dc:type
           rdf:resource="http://purl.org/dc/dcmitype/StillImage" />
        <dc:title></dc:title>
      </cc:Work>
    </rdf:RDF>
  </metadata>
  <g
     inkscape:label="Layer 1"
     inkscape:groupmode="layer"
     id="layer1">
    <rect
       style="fill:#ffffff;stroke:none"
       id="rect3007"
       width="493"
       height="58"
       x="100"
       y="594.36218"
       inkscape:export-filename="C:\Users\danz\Desktop\woogie\top.png"
       inkscape:export-xdpi="90"
       inkscape:export-ydpi="90" />
    <rect
       y="670.36218"
       x="100"
       height="312"
       width="493"
       id="rect3009"
       style="fill:#ffffff;stroke:none"
       inkscape:export-filename="C:\Users\danz\Desktop\woogie\left1.png"
       inkscape:export-xdpi="90"
       inkscape:export-ydpi="90" />
    <rect
       style="fill:#000000;stroke:none"
       id="rect3019"
       width="15.66851"
       height="332.01926"
       x="248.13887"
       y="661.99304" />
    <g
       id="g3034"
       transform="matrix(0.43670696,0,0,0.43670696,-12.192113,701.3581)">
      <path
         id="path3022"
         d="M 214.793,166.129 C 210.72,124.02 201.287,62.846 184.528,21.345 c -19.814,9.375 -37.206,22.448 -52.432,38.294 41.15,34.83 68.781,80.028 82.697,106.49"
         inkscape:connector-curvature="0" />
      <path
         id="path3024"
         d="M 382.259,59.639 C 367.021,43.793 349.617,30.72 329.816,21.357 313.056,62.846 303.624,124.021 299.55,166.129 313.465,139.667 341.086,94.457 382.259,59.639"
         inkscape:connector-curvature="0" />
      <path
         id="path3026"
         d="m 427.048,123.879 c -62.052,30.616 -93.979,68.149 -94.494,68.793 -0.901,1.065 -2.177,1.638 -3.476,1.638 -1.007,0 -2.014,-0.339 -2.868,-1.03 -1.907,-1.58 -2.188,-4.4 -0.608,-6.308 0.539,-0.679 33.414,-39.429 97.257,-70.994 -9.948,-18.094 -21.371,-34.818 -34.421,-49.6 -59.828,50.431 -90.69,123.999 -91.158,125.123 -0.164,0.421 -0.526,0.644 -0.784,0.983 -0.223,0.257 -0.34,0.515 -0.597,0.726 -0.808,0.655 -1.732,1.1 -2.773,1.1 h -0.27 c -0.07,0 -0.105,-0.082 -0.176,-0.093 -0.421,-0.047 -0.843,-0.082 -1.24,-0.246 -0.34,-0.128 -0.434,-0.503 -0.726,-0.714 -0.504,-0.339 -0.878,-0.667 -1.194,-1.182 -0.315,-0.491 -0.433,-0.948 -0.538,-1.521 -0.07,-0.363 -0.374,-0.62 -0.351,-1.006 C 289.005,183.334 295.5,81.36 321.6,17.752 302.347,9.934 281.047,5.393 257.172,5.393 c -23.875,0 -45.176,4.541 -64.428,12.359 26.099,63.62 32.594,165.582 32.969,171.796 0.023,0.386 -0.281,0.644 -0.351,1.006 -0.105,0.574 -0.223,1.03 -0.539,1.521 -0.316,0.515 -0.69,0.843 -1.194,1.182 -0.292,0.211 -0.386,0.585 -0.726,0.714 -0.398,0.164 -0.819,0.199 -1.24,0.246 -0.07,0.012 -0.105,0.093 -0.188,0.093 h -0.257 c -1.042,0 -1.966,-0.445 -2.774,-1.1 -0.257,-0.21 -0.375,-0.468 -0.597,-0.726 -0.258,-0.339 -0.621,-0.562 -0.784,-0.983 -0.468,-1.124 -31.331,-74.692 -91.159,-125.123 -13.049,14.782 -24.472,31.506 -34.42,49.6 63.842,31.564 96.718,70.315 97.256,70.994 1.58,1.908 1.299,4.728 -0.608,6.308 -0.854,0.69 -1.861,1.03 -2.867,1.03 -1.299,0 -2.575,-0.573 -3.476,-1.638 -0.515,-0.644 -32.431,-38.177 -94.494,-68.793 -63.737,123.344 -63.819,298.744 -63.819,298.744 0,17.767 14.945,32.185 33.39,32.185 h 74.469 l 44.649,37.697 32.466,-16.244 48.722,32.478 48.722,-32.478 32.465,16.244 44.649,-37.697 h 74.469 c 18.445,0 33.391,-14.418 33.391,-32.185 -10e-4,0 -0.083,-175.4 -63.82,-298.744 M 295.453,230.405 h 31.296 c 1.439,2.586 2.329,5.524 2.329,8.684 0,9.924 -8.053,17.977 -17.977,17.977 -9.925,0 -17.977,-8.052 -17.977,-17.977 10e-4,-3.16 0.89,-6.098 2.329,-8.684 m -38.281,44.637 c 25.524,0 46.229,12.066 46.229,26.965 0,1.721 -0.34,3.383 -0.866,4.997 -2.188,-0.667 -4.447,-1.135 -6.847,-1.135 -12.184,0 -22.061,9.456 -22.939,21.429 -4.892,1.019 -10.076,1.674 -15.576,1.674 -5.501,0 -10.686,-0.655 -15.578,-1.674 -0.877,-11.973 -10.755,-21.429 -22.938,-21.429 -2.399,0 -4.67,0.468 -6.847,1.135 -0.527,-1.614 -0.866,-3.276 -0.866,-4.997 -0.002,-14.899 20.702,-26.965 46.228,-26.965 m -69.578,-44.637 h 31.295 c 1.439,2.586 2.329,5.524 2.329,8.684 0,9.924 -8.052,17.977 -17.977,17.977 -9.925,0 -17.977,-8.052 -17.977,-17.977 10e-4,-3.16 0.89,-6.098 2.33,-8.684 m -65.247,143.508 c 0,4.975 -4.014,8.988 -8.988,8.988 -4.974,0 -8.988,-4.014 -8.988,-8.988 0,-37.205 36.644,-68.431 90.305,-82.229 -1.042,3.3 -1.709,6.729 -1.709,10.322 0,2.832 0.644,5.699 1.416,8.603 -42.438,12.277 -72.036,36.328 -72.036,63.304 m 206.462,31.858 c -0.667,2.656 -3.055,4.412 -5.642,4.4 h -112.33 -5.22 c -11.329,-0.047 -20.469,-9.89 -20.422,-21.324 0.047,-11.445 9.269,-20.668 20.598,-20.621 1.72,0.012 3.464,0.257 5.044,0.655 l 112.33,29.353 1.476,0.386 c 3.112,0.807 4.973,4.014 4.166,7.151 m 72.175,-22.87 c -4.975,0 -8.988,-4.014 -8.988,-8.988 0,-26.977 -29.599,-51.027 -72.035,-63.304 0.772,-2.903 1.416,-5.771 1.416,-8.603 0,-3.593 -0.667,-7.022 -1.709,-10.322 53.661,13.798 90.305,45.023 90.305,82.229 0,4.975 -4.015,8.988 -8.989,8.988"
         inkscape:connector-curvature="0" />
    </g>
    <text
       xml:space="preserve"
       style="font-size:13.47304153px;font-style:normal;font-weight:normal;line-height:125%;letter-spacing:0px;word-spacing:0px;fill:#000000;fill-opacity:1;stroke:none;font-family:Sans"
       x="-961.72931"
       y="261.19232"
       id="text3039"
       sodipodi:linespacing="125%"
       transform="matrix(0,-1,1,0,0,0)"><tspan
         sodipodi:role="line"
         id="tspan3041"
         x="-961.72931"
         y="261.19232"
         style="font-weight:bold;fill:#ffffff;-inkscape-font-specification:Sans Bold">Show me the Wookie</tspan></text>
    <g
       transform="matrix(0.09571688,0,0,0.09571688,535.13881,598.55599)"
       id="g3043">
      <path
         inkscape:connector-curvature="0"
         d="M 214.793,166.129 C 210.72,124.02 201.287,62.846 184.528,21.345 c -19.814,9.375 -37.206,22.448 -52.432,38.294 41.15,34.83 68.781,80.028 82.697,106.49"
         id="path3045" />
      <path
         inkscape:connector-curvature="0"
         d="M 382.259,59.639 C 367.021,43.793 349.617,30.72 329.816,21.357 313.056,62.846 303.624,124.021 299.55,166.129 313.465,139.667 341.086,94.457 382.259,59.639"
         id="path3047" />
      <path
         inkscape:connector-curvature="0"
         d="m 427.048,123.879 c -62.052,30.616 -93.979,68.149 -94.494,68.793 -0.901,1.065 -2.177,1.638 -3.476,1.638 -1.007,0 -2.014,-0.339 -2.868,-1.03 -1.907,-1.58 -2.188,-4.4 -0.608,-6.308 0.539,-0.679 33.414,-39.429 97.257,-70.994 -9.948,-18.094 -21.371,-34.818 -34.421,-49.6 -59.828,50.431 -90.69,123.999 -91.158,125.123 -0.164,0.421 -0.526,0.644 -0.784,0.983 -0.223,0.257 -0.34,0.515 -0.597,0.726 -0.808,0.655 -1.732,1.1 -2.773,1.1 h -0.27 c -0.07,0 -0.105,-0.082 -0.176,-0.093 -0.421,-0.047 -0.843,-0.082 -1.24,-0.246 -0.34,-0.128 -0.434,-0.503 -0.726,-0.714 -0.504,-0.339 -0.878,-0.667 -1.194,-1.182 -0.315,-0.491 -0.433,-0.948 -0.538,-1.521 -0.07,-0.363 -0.374,-0.62 -0.351,-1.006 C 289.005,183.334 295.5,81.36 321.6,17.752 302.347,9.934 281.047,5.393 257.172,5.393 c -23.875,0 -45.176,4.541 -64.428,12.359 26.099,63.62 32.594,165.582 32.969,171.796 0.023,0.386 -0.281,0.644 -0.351,1.006 -0.105,0.574 -0.223,1.03 -0.539,1.521 -0.316,0.515 -0.69,0.843 -1.194,1.182 -0.292,0.211 -0.386,0.585 -0.726,0.714 -0.398,0.164 -0.819,0.199 -1.24,0.246 -0.07,0.012 -0.105,0.093 -0.188,0.093 h -0.257 c -1.042,0 -1.966,-0.445 -2.774,-1.1 -0.257,-0.21 -0.375,-0.468 -0.597,-0.726 -0.258,-0.339 -0.621,-0.562 -0.784,-0.983 -0.468,-1.124 -31.331,-74.692 -91.159,-125.123 -13.049,14.782 -24.472,31.506 -34.42,49.6 63.842,31.564 96.718,70.315 97.256,70.994 1.58,1.908 1.299,4.728 -0.608,6.308 -0.854,0.69 -1.861,1.03 -2.867,1.03 -1.299,0 -2.575,-0.573 -3.476,-1.638 -0.515,-0.644 -32.431,-38.177 -94.494,-68.793 -63.737,123.344 -63.819,298.744 -63.819,298.744 0,17.767 14.945,32.185 33.39,32.185 h 74.469 l 44.649,37.697 32.466,-16.244 48.722,32.478 48.722,-32.478 32.465,16.244 44.649,-37.697 h 74.469 c 18.445,0 33.391,-14.418 33.391,-32.185 -10e-4,0 -0.083,-175.4 -63.82,-298.744 M 295.453,230.405 h 31.296 c 1.439,2.586 2.329,5.524 2.329,8.684 0,9.924 -8.053,17.977 -17.977,17.977 -9.925,0 -17.977,-8.052 -17.977,-17.977 10e-4,-3.16 0.89,-6.098 2.329,-8.684 m -38.281,44.637 c 25.524,0 46.229,12.066 46.229,26.965 0,1.721 -0.34,3.383 -0.866,4.997 -2.188,-0.667 -4.447,-1.135 -6.847,-1.135 -12.184,0 -22.061,9.456 -22.939,21.429 -4.892,1.019 -10.076,1.674 -15.576,1.674 -5.501,0 -10.686,-0.655 -15.578,-1.674 -0.877,-11.973 -10.755,-21.429 -22.938,-21.429 -2.399,0 -4.67,0.468 -6.847,1.135 -0.527,-1.614 -0.866,-3.276 -0.866,-4.997 -0.002,-14.899 20.702,-26.965 46.228,-26.965 m -69.578,-44.637 h 31.295 c 1.439,2.586 2.329,5.524 2.329,8.684 0,9.924 -8.052,17.977 -17.977,17.977 -9.925,0 -17.977,-8.052 -17.977,-17.977 10e-4,-3.16 0.89,-6.098 2.33,-8.684 m -65.247,143.508 c 0,4.975 -4.014,8.988 -8.988,8.988 -4.974,0 -8.988,-4.014 -8.988,-8.988 0,-37.205 36.644,-68.431 90.305,-82.229 -1.042,3.3 -1.709,6.729 -1.709,10.322 0,2.832 0.644,5.699 1.416,8.603 -42.438,12.277 -72.036,36.328 -72.036,63.304 m 206.462,31.858 c -0.667,2.656 -3.055,4.412 -5.642,4.4 h -112.33 -5.22 c -11.329,-0.047 -20.469,-9.89 -20.422,-21.324 0.047,-11.445 9.269,-20.668 20.598,-20.621 1.72,0.012 3.464,0.257 5.044,0.655 l 112.33,29.353 1.476,0.386 c 3.112,0.807 4.973,4.014 4.166,7.151 m 72.175,-22.87 c -4.975,0 -8.988,-4.014 -8.988,-8.988 0,-26.977 -29.599,-51.027 -72.035,-63.304 0.772,-2.903 1.416,-5.771 1.416,-8.603 0,-3.593 -0.667,-7.022 -1.709,-10.322 53.661,13.798 90.305,45.023 90.305,82.229 0,4.975 -4.015,8.988 -8.989,8.988"
         id="path3049" />
    </g>
  </g>
</svg>
